<svg width="36" height="35" viewBox="0 0 36 35" fill="none" xmlns="http://www.w3.org/2000/svg">
<path d="M18.3191 34.865C28.084 34.865 36 27.0602 36 17.4325C36 7.80479 28.084 0 18.3191 0C8.55419 0 0.638184 7.80479 0.638184 17.4325C0.638184 27.0602 8.55419 34.865 18.3191 34.865Z" fill="url(#paint0_linear_1464_7)"/>
<path d="M28.2374 9.51902C28.2374 9.4055 28.2374 9.27578 28.2045 9.16226C28.1223 8.75685 27.7604 8.28658 27.1683 8.36766C27.0203 8.38388 26.8887 8.43253 26.7571 8.48118L16.6749 12.3244C13.9611 13.3623 11.2473 14.3839 8.53347 15.4217C8.0236 15.6163 7.51373 15.7785 7.03676 16.0217C6.82294 16.1028 6.65847 16.2488 6.52689 16.4271C6.47755 16.492 6.44466 16.5569 6.42821 16.638C6.41176 16.719 6.42821 16.7839 6.42821 16.865C6.44466 16.9461 6.47755 17.0109 6.54334 17.0596C6.59268 17.1244 6.65847 17.1569 6.74071 17.1893C6.88873 17.2542 7.05321 17.319 7.21768 17.3515C8.81307 17.838 10.4085 18.3082 12.0039 18.7947C12.0532 18.8109 12.119 18.8272 12.1683 18.8109C12.2177 18.8109 12.2835 18.7785 12.3164 18.7461L23.4677 11.8217C23.5828 11.7569 23.6979 11.6758 23.7966 11.6109C23.9282 11.5298 24.1091 11.4812 24.2571 11.5136C24.4052 11.5461 24.4545 11.6434 24.3558 11.7731C24.3065 11.8379 24.2571 11.8866 24.1913 11.9352L17.5631 17.9028L15.0137 20.2055C15.0137 20.2055 14.9808 20.238 14.9644 20.2542C14.9644 20.2704 14.9479 20.3028 14.9479 20.3191C14.915 20.7569 14.8821 21.1947 14.8492 21.6488L14.5696 25.2001C14.5696 25.3299 14.5696 25.3461 14.7012 25.3299H14.7506C15.096 25.2488 15.4085 25.0704 15.6552 24.8272C16.4118 24.1137 17.1683 23.3839 17.9249 22.6704C17.9907 22.6055 18.04 22.5893 18.1223 22.6704L22.8591 26.1407C23.0729 26.2866 23.3032 26.4002 23.5663 26.465C23.7802 26.5461 24.0104 26.5299 24.2078 26.4326C24.4052 26.3353 24.5696 26.1731 24.6519 25.9785C24.7341 25.8326 24.7835 25.6704 24.8164 25.5245C24.9644 24.8434 25.1124 24.1623 25.2604 23.4974C25.7374 21.2758 26.2144 19.038 26.7078 16.8163C27.1519 14.7244 27.6124 12.6163 28.0565 10.5244C28.1552 10.2001 28.2045 9.87578 28.221 9.53524L28.2374 9.51902Z" fill="white"/>
<defs>
<linearGradient id="paint0_linear_1464_7" x1="18.3191" y1="33.0812" x2="18.3191" y2="-5.05947" gradientUnits="userSpaceOnUse">
<stop stop-color="#1DD6A4"/>
<stop offset="1" stop-color="#006B6A"/>
</linearGradient>
</defs>
</svg>
