<svg width="36" height="35" viewBox="0 0 36 35" fill="none" xmlns="http://www.w3.org/2000/svg">
<path d="M18.0002 34.865C27.7651 34.865 35.6811 27.0602 35.6811 17.4325C35.6811 7.80479 27.7651 0 18.0002 0C8.23535 0 0.319336 7.80479 0.319336 17.4325C0.319336 27.0602 8.23535 34.865 18.0002 34.865Z" fill="url(#paint0_linear_1464_6)"/>
<path d="M8.88784 27.6974C8.13126 27.9406 7.42403 27.2271 7.68718 26.4974C8.09837 25.2812 8.64113 23.7082 8.97008 22.719V22.6866C9.00297 22.6379 8.97008 22.6055 8.97008 22.5568C8.41087 21.6487 8.01613 20.6758 7.76942 19.6379C7.65429 19.1352 7.57205 18.6325 7.52271 18.1136C7.47337 17.6109 7.47337 17.092 7.48982 16.5893C7.57205 15.2109 7.901 13.8974 8.50955 12.6487C9.80889 9.9568 12.1773 7.94598 15.0556 7.0703C15.6148 6.89193 16.2069 6.77841 16.7826 6.69733C17.424 6.61625 18.049 6.58382 18.6905 6.61625C21.0424 6.74598 23.1477 7.52436 24.9734 9.01626C26.651 10.3784 27.8023 12.0973 28.4437 14.1568C28.6247 14.7406 28.7398 15.3568 28.822 15.9568C28.8878 16.5082 28.9043 17.0595 28.8878 17.6271C28.7727 19.9622 27.9832 22.0541 26.4701 23.8704C24.9898 25.6379 23.1312 26.8055 20.878 27.4055C20.3516 27.5352 19.8253 27.6325 19.299 27.6812C18.7563 27.7298 18.197 27.746 17.6378 27.7298C16.0424 27.6487 14.5293 27.2433 13.1148 26.4812C13.049 26.4487 12.9668 26.4325 12.901 26.465C11.8484 26.8055 10.1707 27.3244 8.88784 27.7298V27.6974ZM9.85824 25.5731C9.85824 25.5731 12.128 24.8595 13.2135 24.519C13.2793 24.5028 13.3122 24.519 13.3615 24.5352C14.7267 25.4109 16.2234 25.865 17.8516 25.9298C18.6082 25.9623 19.3484 25.8974 20.0885 25.7352C22.1444 25.2812 23.8385 24.2433 25.1543 22.6379C26.3714 21.1622 27.0128 19.4595 27.1115 17.5622C27.1444 16.7514 27.0786 15.9568 26.8977 15.1784C26.3549 12.973 25.1378 11.2055 23.2464 9.90815C21.9306 9.00004 20.4503 8.49734 18.8385 8.38382C18.3286 8.35139 17.8023 8.35139 17.2924 8.41625C16.7826 8.4649 16.2891 8.5622 15.7957 8.69193C12.1609 9.69734 9.52929 12.8919 9.31547 16.6217C9.26613 17.3676 9.31547 18.0974 9.4635 18.8271C9.71021 20.0595 10.2036 21.1947 10.9438 22.2325C10.9767 22.2812 10.9931 22.3298 10.9602 22.3947C10.6806 23.2217 9.87468 25.5731 9.87468 25.5731H9.85824Z" fill="white"/>
<path d="M12.8356 14.6433C12.8356 13.7514 13.1317 13.0217 13.7402 12.4217C13.7896 12.373 13.8389 12.3244 13.8883 12.292C14.135 12.0649 14.4146 11.9514 14.76 12.0001C14.9244 12.0163 15.0889 12.0325 15.2534 12.0325C15.385 12.0325 15.5001 12.0974 15.5823 12.1947C15.6646 12.292 15.7139 12.4055 15.7468 12.519C15.9606 13.1028 16.1744 13.6703 16.4047 14.2541C16.4376 14.3514 16.4869 14.4487 16.5198 14.546C16.5856 14.7082 16.5856 14.8703 16.5034 15.0325C16.3718 15.292 16.1909 15.4866 15.9935 15.6974C15.9113 15.7947 15.8126 15.8758 15.7304 15.9568C15.5823 16.119 15.5494 16.2487 15.6646 16.4433C16.0264 17.1082 16.4705 17.7244 17.0133 18.2758C17.5889 18.8433 18.2468 19.3136 18.9869 19.6541C19.0856 19.7028 19.2008 19.7514 19.2994 19.8001C19.3323 19.8001 19.3488 19.8325 19.3817 19.8325C19.5626 19.8974 19.7106 19.8812 19.8422 19.7352C20.1547 19.3947 20.4836 19.0541 20.7633 18.6812C20.7961 18.6487 20.829 18.6163 20.8619 18.5839C20.9442 18.519 21.0429 18.4866 21.1415 18.519C21.2567 18.5514 21.3718 18.5839 21.4705 18.6487C21.8817 18.8595 22.2929 19.0704 22.704 19.2812C22.9508 19.4109 23.1975 19.5406 23.4442 19.6866C23.51 19.719 23.5593 19.7677 23.6251 19.8001C23.6744 19.8325 23.7073 19.8974 23.7238 19.9623C23.7402 20.1244 23.7238 20.3028 23.6909 20.465C23.658 20.6758 23.5922 20.8704 23.5264 21.065C23.4606 21.2433 23.3619 21.4055 23.2139 21.5514C22.9343 21.8271 22.5889 22.0379 22.2271 22.2001C22.0133 22.2974 21.783 22.3623 21.5527 22.3785C21.4376 22.3785 21.3225 22.4109 21.1909 22.4271C20.9606 22.4596 20.7468 22.4271 20.5165 22.3623C20.1054 22.265 19.7106 22.119 19.3159 21.9731C18.8883 21.7947 18.4606 21.6325 18.0494 21.4379C17.3093 21.0974 16.6679 20.6109 16.0593 20.0758C15.204 19.2974 14.4968 18.4055 13.8883 17.4487C13.7073 17.1731 13.5264 16.9136 13.3784 16.6217C13.1646 16.2001 12.9837 15.7622 12.885 15.292C12.8356 15.0649 12.8192 14.8379 12.8027 14.6595L12.8356 14.6433Z" fill="white"/>
<defs>
<linearGradient id="paint0_linear_1464_6" x1="18.0002" y1="33.0812" x2="18.0002" y2="-5.05947" gradientUnits="userSpaceOnUse">
<stop stop-color="#1DD6A4"/>
<stop offset="1" stop-color="#006B6A"/>
</linearGradient>
</defs>
</svg>
